<?xml version="1.0" encoding="utf-8"?>
<!-- Generator: Adobe Illustrator 28.2.0, SVG Export Plug-In . SVG Version: 6.00 Build 0)  -->
<svg version="1.1" id="Layer_1" xmlns="http://www.w3.org/2000/svg" xmlns:xlink="http://www.w3.org/1999/xlink" x="0px" y="0px"
	 viewBox="0 0 1536 1536" style="enable-background:new 0 0 1536 1536;" xml:space="preserve">
<style type="text/css">
	.st0{fill:#FFFFFF;}
</style>
<g>
	<path class="st0" d="M1086.12,0H449.88L0,449.88v636.23L449.88,1536h636.23L1536,1086.12V449.88L1086.12,0z M534.52,1180.87H348.9
		v-174.54h185.62V1180.87z M688.75,739.43c-22.16,20.32-31.4,26.78-111.74,76.65c-38.79,24.94-52.64,48.95-52.64,91.43
		c0,11.08,0.92,21.24,2.77,36.02H355.36c1.85-14.78,1.85-15.7,1.85-42.48c0-63.72,11.08-100.66,40.63-136.68
		c22.16-25.86,29.55-31.4,95.12-71.11c45.25-26.78,60.03-46.18,60.03-76.65c0-43.4-32.32-69.26-87.73-69.26
		c-41.56,0-72.03,14.78-89.58,43.4c-9.23,14.78-12.93,27.71-16.62,56.33l-190.24-18.47c9.24-65.57,24.01-101.59,59.1-140.37
		c53.56-60.95,135.76-92.35,241.96-92.35c169.93,0,276.13,80.34,276.13,207.79C746.01,660.01,727.54,703.42,688.75,739.43z
		 M1158.81,1180.87H973.19v-174.54h185.62V1180.87z M1313.04,739.43c-22.16,20.32-31.4,26.78-111.74,76.65
		c-38.79,24.94-52.64,48.95-52.64,91.43c0,11.08,0.92,21.24,2.77,36.02H979.65c1.85-14.78,1.85-15.7,1.85-42.48
		c0-63.72,11.08-100.66,40.63-136.68c22.16-25.86,29.55-31.4,95.12-71.11c45.25-26.78,60.03-46.18,60.03-76.65
		c0-43.4-32.32-69.26-87.73-69.26c-41.56,0-72.03,14.78-89.58,43.4c-9.24,14.78-12.93,27.71-16.62,56.33L793.1,628.61
		c9.24-65.57,24.01-101.59,59.11-140.37c53.56-60.95,135.75-92.35,241.96-92.35c169.92,0,276.13,80.34,276.13,207.79
		C1370.3,660.01,1351.83,703.42,1313.04,739.43z"/>
</g>
</svg>
