<?xml version="1.0" encoding="utf-8"?>
<!-- Generator: Adobe Illustrator 28.1.0, SVG Export Plug-In . SVG Version: 6.00 Build 0)  -->
<svg version="1.1" id="Layer_1" xmlns="http://www.w3.org/2000/svg" xmlns:xlink="http://www.w3.org/1999/xlink" x="0px" y="0px"
	 viewBox="0 0 1536 1536" style="enable-background:new 0 0 1536 1536;" xml:space="preserve">
<style type="text/css">
	.st0{fill:#FFFFFF;}
</style>
<g>
	<path class="st0" d="M1086.11,0H449.89L0,449.89v636.23L449.89,1536h636.23L1536,1086.11V449.89L1086.11,0z M877.14,1322.84H614.82
		v-246.66h262.32V1322.84z M1095.08,699.02c-31.32,28.71-44.37,37.85-157.91,108.32c-54.81,35.23-74.39,69.17-74.39,129.2
		c0,15.66,1.3,30.02,3.91,50.89H623.96c2.61-20.88,2.61-22.18,2.61-60.04c0-90.05,15.66-142.25,57.42-193.15
		c31.32-36.54,41.76-44.37,134.42-100.49c63.95-37.85,84.83-65.26,84.83-108.32c0-61.33-45.68-97.88-123.98-97.88
		c-58.72,0-101.8,20.88-126.59,61.33c-13.05,20.88-18.27,39.15-23.49,79.61l-268.85-26.1c13.05-92.66,33.93-143.56,83.53-198.38
		c75.7-86.14,191.84-130.51,341.93-130.51c240.14,0,390.22,113.54,390.22,293.64C1176,586.78,1149.9,648.12,1095.08,699.02z"/>
</g>
</svg>
